<?xml version="1.0" encoding="UTF-8" standalone="no"?>
<!DOCTYPE svg PUBLIC "-//W3C//DTD SVG 1.1//EN" "http://www.w3.org/Graphics/SVG/1.1/DTD/svg11.dtd">
<svg width="100%" height="100%" viewBox="0 0 64 64" version="1.1" xmlns="http://www.w3.org/2000/svg" xmlns:xlink="http://www.w3.org/1999/xlink" xml:space="preserve" xmlns:serif="http://www.serif.com/" style="fill-rule:evenodd;clip-rule:evenodd;stroke-linejoin:round;stroke-miterlimit:2;">
    <g transform="matrix(1,0,0,1,-16.2224,24.701)">
        <g transform="matrix(1.17366,0,0,1.17366,-2.52153,-7.13097)">
            <path d="M18.659,34.912L18.659,-0.952L22.663,-0.952L22.663,2.417C23.607,1.099 24.673,0.11 25.861,-0.549C27.049,-1.208 28.49,-1.538 30.183,-1.538C32.396,-1.538 34.349,-0.968 36.042,0.171C37.735,1.31 39.012,2.918 39.875,4.993C40.738,7.068 41.169,9.342 41.169,11.816C41.169,14.469 40.693,16.858 39.741,18.982C38.789,21.106 37.405,22.734 35.59,23.865C33.776,24.996 31.867,25.562 29.865,25.562C28.4,25.562 27.086,25.252 25.922,24.634C24.759,24.015 23.802,23.234 23.054,22.29L23.054,34.912L18.659,34.912ZM22.639,12.158C22.639,15.495 23.314,17.961 24.665,19.556C26.016,21.151 27.652,21.948 29.572,21.948C31.525,21.948 33.198,21.122 34.589,19.47C35.981,17.818 36.677,15.259 36.677,11.792C36.677,8.488 35.997,6.014 34.638,4.37C33.279,2.726 31.656,1.904 29.768,1.904C27.896,1.904 26.24,2.779 24.799,4.529C23.359,6.279 22.639,8.822 22.639,12.158Z" style="fill-rule:nonzero;"/>
        </g>
        <g transform="matrix(1.17366,0,0,1.17366,-8.18312,-6.55243)">
            <path d="M46.491,24.976L46.491,-10.815L50.886,-10.815L50.886,9.595L61.286,-0.952L66.975,-0.952L57.063,8.667L67.976,24.976L62.556,24.976L53.986,11.719L50.886,14.697L50.886,24.976L46.491,24.976Z" style="fill-rule:nonzero;"/>
        </g>
        <g transform="matrix(1.17366,0,0,1.17366,-14.1465,-6.74527)">
            <path d="M75.208,24.976C74.546,24.976 73.911,24.713 73.443,24.244C72.975,23.776 72.712,23.141 72.712,22.479L72.712,22.474C72.712,21.81 72.976,21.173 73.445,20.704C73.915,20.234 74.551,19.971 75.215,19.971L75.217,19.971C76.598,19.971 77.717,21.09 77.717,22.471L77.717,24.976L75.208,24.976Z" style="fill-rule:nonzero;"/>
        </g>
    </g>
</svg>
