<?xml version="1.0" encoding="UTF-8" standalone="no"?>
<!DOCTYPE svg PUBLIC "-//W3C//DTD SVG 1.1//EN" "http://www.w3.org/Graphics/SVG/1.1/DTD/svg11.dtd">
<svg width="100%" height="100%" viewBox="0 0 1200 630" version="1.1" xmlns="http://www.w3.org/2000/svg" xmlns:xlink="http://www.w3.org/1999/xlink" xml:space="preserve" xmlns:serif="http://www.serif.com/" style="fill-rule:evenodd;clip-rule:evenodd;stroke-linejoin:round;stroke-miterlimit:2;">
    <g id="Artboard1" transform="matrix(373.92,0,0,169.231,-28119,-4362.43)">
        <rect x="75.2" y="25.778" width="3.209" height="3.723" style="fill:none;"/>
        <g transform="matrix(0.0142281,0,0,0.0314373,72.0793,18.1339)">
            <g transform="matrix(1,0,0,1,27.6922,0)">
                <path d="M196.818,324.93L196.818,289.066L200.822,289.066L200.822,292.435C201.766,291.117 202.832,290.128 204.02,289.469C205.209,288.81 206.649,288.48 208.342,288.48C210.555,288.48 212.508,289.05 214.201,290.189C215.894,291.329 217.171,292.936 218.034,295.011C218.897,297.086 219.328,299.361 219.328,301.835C219.328,304.488 218.852,306.876 217.9,309C216.948,311.124 215.564,312.752 213.749,313.883C211.935,315.014 210.026,315.58 208.024,315.58C206.559,315.58 205.245,315.271 204.081,314.652C202.918,314.034 201.961,313.252 201.213,312.308L201.213,324.93L196.818,324.93ZM200.798,302.177C200.798,305.513 201.473,307.979 202.824,309.574C204.175,311.169 205.811,311.967 207.731,311.967C209.684,311.967 211.357,311.141 212.748,309.489C214.14,307.837 214.836,305.277 214.836,301.81C214.836,298.506 214.156,296.032 212.797,294.388C211.438,292.745 209.815,291.923 207.927,291.923C206.055,291.923 204.399,292.797 202.958,294.547C201.518,296.297 200.798,298.84 200.798,302.177Z" style="fill-rule:nonzero;"/>
            </g>
            <g transform="matrix(1,0,0,1,24.8829,0)">
                <path d="M222.99,302.03C222.99,297.229 224.325,293.672 226.994,291.361C229.224,289.441 231.942,288.48 235.148,288.48C238.713,288.48 241.626,289.648 243.889,291.984C246.151,294.319 247.282,297.546 247.282,301.664C247.282,305 246.782,307.625 245.781,309.537C244.78,311.45 243.323,312.935 241.411,313.993C239.498,315.051 237.411,315.58 235.148,315.58C231.519,315.58 228.585,314.416 226.347,312.089C224.109,309.761 222.99,306.408 222.99,302.03ZM227.507,302.03C227.507,305.35 228.231,307.837 229.68,309.489C231.128,311.141 232.951,311.967 235.148,311.967C237.329,311.967 239.144,311.137 240.593,309.476C242.041,307.816 242.766,305.285 242.766,301.884C242.766,298.677 242.037,296.248 240.58,294.596C239.124,292.944 237.313,292.118 235.148,292.118C232.951,292.118 231.128,292.94 229.68,294.584C228.231,296.228 227.507,298.71 227.507,302.03Z" style="fill-rule:nonzero;"/>
            </g>
            <g transform="matrix(1,0,0,1,21.6722,0)">
                <path d="M252.458,284.257L252.458,279.203L256.852,279.203L256.852,284.257L252.458,284.257ZM252.458,314.994L252.458,289.066L256.852,289.066L256.852,314.994L252.458,314.994Z" style="fill-rule:nonzero;"/>
            </g>
            <g transform="matrix(1,0,0,1,17.2575,0)">
                <path d="M263.542,314.994L263.542,289.066L267.497,289.066L267.497,292.753C269.401,289.904 272.152,288.48 275.749,288.48C277.311,288.48 278.748,288.761 280.058,289.323C281.368,289.884 282.349,290.621 283,291.532C283.651,292.443 284.107,293.526 284.367,294.779C284.53,295.593 284.611,297.017 284.611,299.052L284.611,314.994L280.217,314.994L280.217,299.222C280.217,297.432 280.046,296.093 279.704,295.206C279.362,294.319 278.756,293.611 277.885,293.082C277.014,292.553 275.993,292.289 274.821,292.289C272.949,292.289 271.334,292.883 269.975,294.071C268.616,295.259 267.936,297.513 267.936,300.834L267.936,314.994L263.542,314.994Z" style="fill-rule:nonzero;"/>
            </g>
            <g transform="matrix(1,0,0,1,13.6454,0)">
                <path d="M300.944,311.063L301.579,314.945C300.342,315.206 299.235,315.336 298.259,315.336C296.664,315.336 295.427,315.083 294.548,314.579C293.669,314.074 293.05,313.411 292.692,312.589C292.334,311.767 292.155,310.038 292.155,307.401L292.155,292.484L288.933,292.484L288.933,289.066L292.155,289.066L292.155,282.645L296.525,280.009L296.525,289.066L300.944,289.066L300.944,292.484L296.525,292.484L296.525,307.645C296.525,308.899 296.603,309.704 296.757,310.062C296.912,310.42 297.164,310.705 297.514,310.917C297.864,311.128 298.364,311.234 299.016,311.234C299.504,311.234 300.147,311.177 300.944,311.063Z" style="fill-rule:nonzero;"/>
            </g>
            <g transform="matrix(1,0,0,1,13.2441,0)">
                <path d="M305.046,324.979L304.558,320.853C305.518,321.114 306.356,321.244 307.072,321.244C308.049,321.244 308.83,321.081 309.416,320.756C310.002,320.43 310.482,319.974 310.856,319.388C311.133,318.949 311.581,317.859 312.199,316.117C312.28,315.873 312.411,315.515 312.59,315.043L302.751,289.066L307.487,289.066L312.883,304.081C313.583,305.985 314.209,307.987 314.763,310.087C315.267,308.068 315.869,306.099 316.569,304.179L322.111,289.066L326.506,289.066L316.642,315.433C315.585,318.282 314.763,320.243 314.177,321.317C313.395,322.766 312.5,323.828 311.491,324.503C310.482,325.179 309.278,325.516 307.878,325.516C307.031,325.516 306.087,325.337 305.046,324.979Z" style="fill-rule:nonzero;"/>
            </g>
            <g transform="matrix(1,0,0,1,10.4348,0)">
                <path d="M330.266,314.994L330.266,279.203L334.66,279.203L334.66,299.613L345.06,289.066L350.749,289.066L340.837,298.685L351.75,314.994L346.33,314.994L337.761,301.737L334.66,304.716L334.66,314.994L330.266,314.994Z" style="fill-rule:nonzero;"/>
            </g>
            <g transform="matrix(1,0,0,1,7.6254,0)">
                <path d="M353.605,302.03C353.605,297.229 354.94,293.672 357.609,291.361C359.839,289.441 362.557,288.48 365.764,288.48C369.328,288.48 372.241,289.648 374.504,291.984C376.766,294.319 377.897,297.546 377.897,301.664C377.897,305 377.397,307.625 376.396,309.537C375.395,311.45 373.938,312.935 372.026,313.993C370.113,315.051 368.026,315.58 365.764,315.58C362.134,315.58 359.2,314.416 356.962,312.089C354.724,309.761 353.605,306.408 353.605,302.03ZM358.122,302.03C358.122,305.35 358.846,307.837 360.295,309.489C361.743,311.141 363.566,311.967 365.764,311.967C367.945,311.967 369.759,311.137 371.208,309.476C372.656,307.816 373.381,305.285 373.381,301.884C373.381,298.677 372.652,296.248 371.196,294.596C369.739,292.944 367.928,292.118 365.764,292.118C363.566,292.118 361.743,292.94 360.295,294.584C358.846,296.228 358.122,298.71 358.122,302.03Z" style="fill-rule:nonzero;"/>
            </g>
            <g transform="matrix(1,0,0,1,4.01337,0)">
                <path d="M383.049,314.994L383.049,289.066L387.004,289.066L387.004,292.753C388.908,289.904 391.659,288.48 395.256,288.48C396.818,288.48 398.255,288.761 399.565,289.323C400.875,289.884 401.856,290.621 402.507,291.532C403.158,292.443 403.613,293.526 403.874,294.779C404.037,295.593 404.118,297.017 404.118,299.052L404.118,314.994L399.724,314.994L399.724,299.222C399.724,297.432 399.553,296.093 399.211,295.206C398.869,294.319 398.263,293.611 397.392,293.082C396.521,292.553 395.5,292.289 394.328,292.289C392.456,292.289 390.841,292.883 389.482,294.071C388.123,295.259 387.443,297.513 387.443,300.834L387.443,314.994L383.049,314.994Z" style="fill-rule:nonzero;"/>
            </g>
            <path d="M428.605,306.644L433.146,307.206C432.43,309.859 431.104,311.918 429.167,313.383C427.23,314.847 424.756,315.58 421.745,315.58C417.953,315.58 414.946,314.412 412.724,312.076C410.502,309.741 409.391,306.465 409.391,302.25C409.391,297.888 410.515,294.502 412.761,292.094C415.007,289.685 417.92,288.48 421.501,288.48C424.968,288.48 427.8,289.66 429.997,292.02C432.194,294.38 433.293,297.701 433.293,301.981C433.293,302.242 433.285,302.632 433.268,303.153L413.933,303.153C414.095,306.001 414.901,308.182 416.35,309.696C417.798,311.21 419.605,311.967 421.769,311.967C423.381,311.967 424.756,311.543 425.895,310.697C427.035,309.851 427.938,308.5 428.605,306.644ZM414.177,299.54L428.654,299.54C428.459,297.359 427.905,295.723 426.994,294.633C425.594,292.94 423.78,292.094 421.55,292.094C419.531,292.094 417.835,292.769 416.459,294.12C415.084,295.471 414.323,297.277 414.177,299.54Z" style="fill-rule:nonzero;"/>
            <g transform="matrix(1,0,0,1,-5.13711,0)">
                <path d="M442.405,314.994C441.027,314.994 439.909,313.876 439.909,312.498L439.909,312.491C439.909,311.827 440.173,311.191 440.642,310.722C441.111,310.253 441.747,309.989 442.411,309.989L442.411,309.989C443.075,309.989 443.711,310.253 444.181,310.722C444.65,311.192 444.914,311.828 444.914,312.492L444.914,314.994L442.405,314.994Z" style="fill-rule:nonzero;"/>
            </g>
        </g>
    </g>
</svg>
